<?xml version="1.0" encoding="UTF-8" standalone="no"?>
<!-- Created with Inkscape (http://www.inkscape.org/) -->

<svg
   xmlns:dc="http://purl.org/dc/elements/1.1/"
   xmlns:cc="http://creativecommons.org/ns#"
   xmlns:rdf="http://www.w3.org/1999/02/22-rdf-syntax-ns#"
   xmlns:svg="http://www.w3.org/2000/svg"
   xmlns="http://www.w3.org/2000/svg"
   xmlns:xlink="http://www.w3.org/1999/xlink"
   xmlns:sodipodi="http://sodipodi.sourceforge.net/DTD/sodipodi-0.dtd"
   xmlns:inkscape="http://www.inkscape.org/namespaces/inkscape"
   width="601.42401"
   height="713.34393"
   id="svg7095"
   version="1.1"
   inkscape:version="0.48.4 r9939"
   sodipodi:docname="Nouveau document 10">
  <defs
     id="defs7097">
    <linearGradient
       inkscape:collect="always"
       xlink:href="#linearGradient3785"
       id="linearGradient6632"
       gradientUnits="userSpaceOnUse"
       x1="365.11295"
       y1="127.82292"
       x2="313.37445"
       y2="126.4492" />
    <linearGradient
       id="linearGradient3785">
      <stop
         style="stop-color:#ff9900;stop-opacity:1;"
         offset="0"
         id="stop3787" />
      <stop
         style="stop-color:#ffffff;stop-opacity:1;"
         offset="1"
         id="stop3789" />
    </linearGradient>
    <linearGradient
       id="linearGradient6894">
      <stop
         style="stop-color:#ff9900;stop-opacity:1;"
         offset="0"
         id="stop6896" />
      <stop
         style="stop-color:#ffffff;stop-opacity:1;"
         offset="1"
         id="stop6898" />
    </linearGradient>
    <linearGradient
       id="linearGradient5475">
      <stop
         style="stop-color:#800000;stop-opacity:1;"
         offset="0"
         id="stop5477" />
      <stop
         style="stop-color:#3d0000;stop-opacity:1;"
         offset="1"
         id="stop5479" />
    </linearGradient>
    <linearGradient
       id="linearGradient5483">
      <stop
         style="stop-color:#d40000;stop-opacity:1;"
         offset="0"
         id="stop5485" />
      <stop
         style="stop-color:#ff9292;stop-opacity:1;"
         offset="1"
         id="stop5487" />
    </linearGradient>
    <linearGradient
       id="linearGradient4268">
      <stop
         style="stop-color:#ffffff;stop-opacity:1;"
         offset="0"
         id="stop4270" />
      <stop
         style="stop-color:#cecece;stop-opacity:1;"
         offset="1"
         id="stop4272" />
    </linearGradient>
    <linearGradient
       id="linearGradient6913">
      <stop
         style="stop-color:#ffffff;stop-opacity:1;"
         offset="0"
         id="stop6915" />
      <stop
         style="stop-color:#cecece;stop-opacity:1;"
         offset="1"
         id="stop6917" />
    </linearGradient>
    <linearGradient
       id="linearGradient6920">
      <stop
         style="stop-color:#ff9900;stop-opacity:1;"
         offset="0"
         id="stop6922" />
      <stop
         style="stop-color:#ffffff;stop-opacity:1;"
         offset="1"
         id="stop6924" />
    </linearGradient>
    <linearGradient
       inkscape:collect="always"
       xlink:href="#linearGradient3785"
       id="linearGradient6549"
       gradientUnits="userSpaceOnUse"
       x1="475.32288"
       y1="482.37473"
       x2="457.71649"
       y2="436.65485" />
    <linearGradient
       id="linearGradient6927">
      <stop
         style="stop-color:#ff9900;stop-opacity:1;"
         offset="0"
         id="stop6929" />
      <stop
         style="stop-color:#ffffff;stop-opacity:1;"
         offset="1"
         id="stop6931" />
    </linearGradient>
    <linearGradient
       id="linearGradient6934">
      <stop
         style="stop-color:#ff9900;stop-opacity:1;"
         offset="0"
         id="stop6936" />
      <stop
         style="stop-color:#ffffff;stop-opacity:1;"
         offset="1"
         id="stop6938" />
    </linearGradient>
    <linearGradient
       inkscape:collect="always"
       xlink:href="#linearGradient3785"
       id="linearGradient6529"
       gradientUnits="userSpaceOnUse"
       x1="475.32288"
       y1="482.37473"
       x2="457.71649"
       y2="436.65485" />
    <linearGradient
       id="linearGradient6941">
      <stop
         style="stop-color:#ff9900;stop-opacity:1;"
         offset="0"
         id="stop6943" />
      <stop
         style="stop-color:#ffffff;stop-opacity:1;"
         offset="1"
         id="stop6945" />
    </linearGradient>
    <linearGradient
       id="linearGradient3946">
      <stop
         style="stop-color:#9cdafb;stop-opacity:1;"
         offset="0"
         id="stop3948" />
      <stop
         style="stop-color:#1aa9f6;stop-opacity:1;"
         offset="1"
         id="stop3950" />
    </linearGradient>
    <linearGradient
       id="linearGradient3966">
      <stop
         style="stop-color:#9cdafb;stop-opacity:1;"
         offset="0"
         id="stop3968" />
      <stop
         style="stop-color:#ffffff;stop-opacity:1;"
         offset="1"
         id="stop3970" />
    </linearGradient>
    <linearGradient
       id="linearGradient6956">
      <stop
         style="stop-color:#ffffff;stop-opacity:1;"
         offset="0"
         id="stop6958" />
      <stop
         style="stop-color:#cecece;stop-opacity:1;"
         offset="1"
         id="stop6960" />
    </linearGradient>
    <linearGradient
       id="linearGradient6963">
      <stop
         style="stop-color:#ffffff;stop-opacity:1;"
         offset="0"
         id="stop6965" />
      <stop
         style="stop-color:#cecece;stop-opacity:1;"
         offset="1"
         id="stop6967" />
    </linearGradient>
    <linearGradient
       id="linearGradient6970">
      <stop
         style="stop-color:#ffffff;stop-opacity:1;"
         offset="0"
         id="stop6972" />
      <stop
         style="stop-color:#cecece;stop-opacity:1;"
         offset="1"
         id="stop6974" />
    </linearGradient>
    <linearGradient
       id="linearGradient5642">
      <stop
         style="stop-color:#828282;stop-opacity:1;"
         offset="0"
         id="stop5644" />
      <stop
         style="stop-color:#4d4d4d;stop-opacity:1;"
         offset="1"
         id="stop5646" />
    </linearGradient>
    <linearGradient
       id="linearGradient6169">
      <stop
         style="stop-color:#00ae4f;stop-opacity:1;"
         offset="0"
         id="stop6171" />
      <stop
         style="stop-color:#007b38;stop-opacity:1;"
         offset="1"
         id="stop6173" />
    </linearGradient>
    <linearGradient
       id="linearGradient6985">
      <stop
         style="stop-color:#00ae4f;stop-opacity:1;"
         offset="0"
         id="stop6987" />
      <stop
         style="stop-color:#007b38;stop-opacity:1;"
         offset="1"
         id="stop6989" />
    </linearGradient>
    <linearGradient
       id="linearGradient6992">
      <stop
         style="stop-color:#00ae4f;stop-opacity:1;"
         offset="0"
         id="stop6994" />
      <stop
         style="stop-color:#007b38;stop-opacity:1;"
         offset="1"
         id="stop6996" />
    </linearGradient>
    <linearGradient
       id="linearGradient4011">
      <stop
         style="stop-color:#969696;stop-opacity:1;"
         offset="0"
         id="stop4013" />
      <stop
         style="stop-color:#5a5a5a;stop-opacity:1;"
         offset="1"
         id="stop4015" />
    </linearGradient>
    <linearGradient
       id="linearGradient5654">
      <stop
         style="stop-color:#999999;stop-opacity:1;"
         offset="0"
         id="stop5656" />
      <stop
         style="stop-color:#cbcbcb;stop-opacity:1;"
         offset="1"
         id="stop5658" />
    </linearGradient>
    <linearGradient
       id="linearGradient3933">
      <stop
         style="stop-color:#ff9900;stop-opacity:1;"
         offset="0"
         id="stop3935" />
      <stop
         style="stop-color:#8d5500;stop-opacity:1;"
         offset="1"
         id="stop3937" />
    </linearGradient>
    <linearGradient
       id="linearGradient3914">
      <stop
         style="stop-color:#3366ff;stop-opacity:1;"
         offset="0"
         id="stop3916" />
      <stop
         style="stop-color:#00279c;stop-opacity:1;"
         offset="1"
         id="stop3918" />
    </linearGradient>
    <linearGradient
       id="linearGradient3991">
      <stop
         style="stop-color:#3366ff;stop-opacity:1;"
         offset="0"
         id="stop3993" />
      <stop
         style="stop-color:#ffffff;stop-opacity:1;"
         offset="1"
         id="stop3995" />
    </linearGradient>
    <linearGradient
       gradientTransform="translate(-11.217427,-162.38559)"
       inkscape:collect="always"
       xlink:href="#linearGradient3933"
       id="linearGradient6578"
       x1="296.78082"
       y1="687.31409"
       x2="262.6445"
       y2="694.8902"
       gradientUnits="userSpaceOnUse" />
    <linearGradient
       id="linearGradient7019">
      <stop
         style="stop-color:#ff9900;stop-opacity:1;"
         offset="0"
         id="stop7021" />
      <stop
         style="stop-color:#8d5500;stop-opacity:1;"
         offset="1"
         id="stop7023" />
    </linearGradient>
    <linearGradient
       inkscape:collect="always"
       xlink:href="#linearGradient3991"
       id="linearGradient7449"
       gradientUnits="userSpaceOnUse"
       gradientTransform="matrix(1.1296161,0.33396129,-0.29734336,1.2687287,200.00125,-403.56318)"
       x1="299.75"
       y1="756.40955"
       x2="273.39731"
       y2="644.98102" />
    <linearGradient
       inkscape:collect="always"
       xlink:href="#linearGradient3914"
       id="linearGradient7452"
       gradientUnits="userSpaceOnUse"
       gradientTransform="matrix(1.1296161,0.33396129,-0.29734336,1.2687287,200.00125,-403.56318)"
       x1="362.79047"
       y1="690.60773"
       x2="438.36722"
       y2="604.74475" />
    <linearGradient
       inkscape:collect="always"
       xlink:href="#linearGradient3933"
       id="linearGradient7457"
       gradientUnits="userSpaceOnUse"
       gradientTransform="matrix(1.1575341,0.39403422,-0.18226977,1.3646576,125.79226,-475.65257)"
       x1="375.05139"
       y1="587.9411"
       x2="385.1897"
       y2="521.77252" />
    <linearGradient
       inkscape:collect="always"
       xlink:href="#linearGradient5654"
       id="linearGradient7462"
       gradientUnits="userSpaceOnUse"
       x1="125.71433"
       y1="921.13123"
       x2="512.5531"
       y2="921.13123"
       gradientTransform="translate(-11.217427,-162.38559)" />
    <linearGradient
       inkscape:collect="always"
       xlink:href="#linearGradient4011"
       id="linearGradient7466"
       gradientUnits="userSpaceOnUse"
       x1="526.29456"
       y1="910.9408"
       x2="275.76657"
       y2="750.83167"
       gradientTransform="translate(-11.217427,-162.38559)" />
    <linearGradient
       inkscape:collect="always"
       xlink:href="#linearGradient6169"
       id="linearGradient7470"
       gradientUnits="userSpaceOnUse"
       x1="328.125"
       y1="781.52234"
       x2="339.61606"
       y2="727.23663"
       gradientTransform="translate(-11.217427,-162.38559)" />
    <linearGradient
       inkscape:collect="always"
       xlink:href="#linearGradient6169"
       id="linearGradient7473"
       gradientUnits="userSpaceOnUse"
       x1="333.34821"
       y1="707.96649"
       x2="341.29019"
       y2="630.46649"
       gradientTransform="translate(-11.217427,-162.38559)" />
    <linearGradient
       inkscape:collect="always"
       xlink:href="#linearGradient6169"
       id="linearGradient7476"
       gradientUnits="userSpaceOnUse"
       x1="341.95331"
       y1="608.76038"
       x2="347.52658"
       y2="578.4032"
       gradientTransform="translate(-11.217427,-162.38559)" />
    <linearGradient
       inkscape:collect="always"
       xlink:href="#linearGradient5642"
       id="linearGradient7480"
       gradientUnits="userSpaceOnUse"
       x1="165.21938"
       y1="691.55359"
       x2="126.44385"
       y2="719.58929"
       gradientTransform="translate(-11.217427,-162.38559)" />
    <linearGradient
       inkscape:collect="always"
       xlink:href="#linearGradient4268"
       id="linearGradient7483"
       gradientUnits="userSpaceOnUse"
       x1="122.00893"
       y1="603.64734"
       x2="182.02232"
       y2="687.57587"
       gradientTransform="translate(-11.217427,-162.38559)" />
    <linearGradient
       inkscape:collect="always"
       xlink:href="#linearGradient4268"
       id="linearGradient7486"
       gradientUnits="userSpaceOnUse"
       x1="227.76169"
       y1="671.50287"
       x2="232.64282"
       y2="722.57428"
       gradientTransform="translate(-11.217427,-162.38559)" />
    <linearGradient
       inkscape:collect="always"
       xlink:href="#linearGradient4268"
       id="linearGradient7490"
       gradientUnits="userSpaceOnUse"
       x1="131.02649"
       y1="700.82605"
       x2="167.20746"
       y2="786.54028"
       gradientTransform="translate(-11.217427,-162.38559)" />
    <linearGradient
       inkscape:collect="always"
       xlink:href="#linearGradient3966"
       id="linearGradient7498"
       gradientUnits="userSpaceOnUse"
       gradientTransform="matrix(1.0919466,0.36871574,-0.33743107,1.1931856,241.97523,-360.1391)"
       x1="181.86549"
       y1="532.22729"
       x2="240.01822"
       y2="436.26279" />
    <linearGradient
       inkscape:collect="always"
       xlink:href="#linearGradient3946"
       id="linearGradient7501"
       gradientUnits="userSpaceOnUse"
       gradientTransform="matrix(1.0919466,0.36871574,-0.33743107,1.1931856,241.97523,-360.1391)"
       x1="363.65851"
       y1="474.67557"
       x2="475.70157"
       y2="435.2796" />
    <linearGradient
       inkscape:collect="always"
       xlink:href="#linearGradient3785"
       id="linearGradient7509"
       gradientUnits="userSpaceOnUse"
       x1="276.91156"
       y1="651.54633"
       x2="220.01935"
       y2="634.29608"
       gradientTransform="matrix(-0.29580705,1.6285028,0.93760252,0.76819749,56.260793,-460.05587)" />
    <linearGradient
       inkscape:collect="always"
       xlink:href="#linearGradient3785"
       id="linearGradient7517"
       gradientUnits="userSpaceOnUse"
       x1="532.61163"
       y1="515.01868"
       x2="462.27725"
       y2="446.07578"
       gradientTransform="matrix(-0.96755944,0.65747472,-0.49974854,-1.2729319,1240.1093,821.48609)" />
    <linearGradient
       inkscape:collect="always"
       xlink:href="#linearGradient4268"
       id="linearGradient7522"
       gradientUnits="userSpaceOnUse"
       x1="453.62054"
       y1="586.01257"
       x2="461.03195"
       y2="594.22687"
       gradientTransform="translate(-11.217427,-162.38559)" />
    <linearGradient
       inkscape:collect="always"
       xlink:href="#linearGradient4268"
       id="linearGradient7525"
       gradientUnits="userSpaceOnUse"
       x1="427.18073"
       y1="649.91052"
       x2="421.42859"
       y2="687.00507"
       gradientTransform="translate(-11.217427,-162.38559)" />
    <linearGradient
       inkscape:collect="always"
       xlink:href="#linearGradient5483"
       id="linearGradient7529"
       gradientUnits="userSpaceOnUse"
       x1="336.20541"
       y1="607.88763"
       x2="360.47952"
       y2="603.08942"
       gradientTransform="matrix(-0.98903914,0.25359436,0.05300833,1.1111262,761.47805,-353.18533)" />
    <linearGradient
       inkscape:collect="always"
       xlink:href="#linearGradient5475"
       id="linearGradient7532"
       gradientUnits="userSpaceOnUse"
       x1="370.97906"
       y1="595.40051"
       x2="316.67764"
       y2="574.94495"
       gradientTransform="matrix(-0.98903914,0.25359436,0.05300833,1.1111262,761.47805,-353.18533)" />
    <linearGradient
       inkscape:collect="always"
       xlink:href="#linearGradient3785"
       id="linearGradient7536"
       gradientUnits="userSpaceOnUse"
       x1="356.40964"
       y1="104.41735"
       x2="288.22116"
       y2="102.45306"
       gradientTransform="matrix(1.0277635,0.27426429,-0.25067065,1.1719171,113.5895,26.343451)" />
  </defs>
  <sodipodi:namedview
     id="base"
     pagecolor="#ffffff"
     bordercolor="#666666"
     borderopacity="1.0"
     inkscape:pageopacity="0.0"
     inkscape:pageshadow="2"
     inkscape:zoom="0.7"
     inkscape:cx="366.50649"
     inkscape:cy="331.25268"
     inkscape:document-units="px"
     inkscape:current-layer="layer1"
     showgrid="false"
     fit-margin-top="0"
     fit-margin-left="0"
     fit-margin-right="0"
     fit-margin-bottom="0"
     inkscape:window-width="1871"
     inkscape:window-height="1056"
     inkscape:window-x="49"
     inkscape:window-y="24"
     inkscape:window-maximized="1" />
  <metadata
     id="metadata7100">
    <rdf:RDF>
      <cc:Work
         rdf:about="">
        <dc:format>image/svg+xml</dc:format>
        <dc:type
           rdf:resource="http://purl.org/dc/dcmitype/StillImage" />
        <dc:title></dc:title>
      </cc:Work>
    </rdf:RDF>
  </metadata>
  <g
     inkscape:label="Calque 1"
     inkscape:groupmode="layer"
     id="layer1"
     transform="translate(-59.59375,-191.40602)">
    <path
       style="fill:#000000;fill-opacity:1;stroke:none"
       d="m 430.09375,191.40625 c -1.19058,-0.002 -2.37633,0.009 -3.5625,0.0312 -11.12073,0.74024 -21.46624,5.71628 -32.28125,8.0625 -3.75457,1.21127 -7.54272,3.05089 -11.03125,5.375 -40.74107,4.49987 -79.30355,22.22354 -111.375,47.375 -33.61853,25.85645 -60.96934,58.60182 -82.5,95.1875 8.96551,14.83728 22.48567,25.09469 37.4375,33.21875 7.15678,28.36814 13.39689,56.96327 21,85.21875 6.57198,5.02512 13.36652,9.78718 20.34375,14.25 0.91583,8.53134 1.83413,17.06241 2.75,25.59375 -6.03208,0.82179 -12.04523,1.6716 -18,2.84375 -3.53285,-5.49663 -8.44398,-9.99679 -14.6875,-12.53125 -1.80627,-5.02969 -1.53015,-10.76055 -3.71875,-15.875 -3.93762,-13.76938 -15.56083,-26.65576 -30.625,-26.84375 -2.40462,-0.1736 -4.85507,-0.10006 -7.3125,0.0625 0.25449,-4.70487 0.65174,-9.43927 0.25,-14.0625 -0.10219,-22.25737 -1.11661,-44.49678 -1.46875,-66.75 l -3.21875,2.875 c -37.46998,33.02201 -75.13435,65.82271 -112.6875,98.75 -0.302856,7.2109 3.167794,14.87967 0.625,21.65625 -6.817343,7.29505 -13.631668,14.60062 -20.4375,21.90625 9.773926,16.29996 19.381689,33.04349 26.03125,50.6875 -1.15493,27.80871 -0.785618,55.64815 -1.40625,83.46875 10.828339,2.94769 21.91569,5.01634 33.125,5.71875 3.38927,9.97098 4.75961,20.97722 8.9375,30.4375 5.33696,4.13855 10.22265,-2.45569 14.03125,-5.34375 2.49462,-1.87742 4.9784,-3.77259 7.46875,-5.65625 118.88462,75.89707 237.77303,151.78823 356.65625,227.6875 50.45739,-61.29967 100.85284,-122.65069 151.25,-184 1.88827,-20.79883 5.33027,-65.69916 5.33027,-65.69916 0,0 -105.139,-27.0203 -155.83027,-41.58209 4.62414,-15.64259 9.21652,-31.28654 13.8125,-46.9375 4.17788,1.15539 8.35865,2.238 12.5625,3.28125 12.47973,15.42478 34.37233,23.50555 53.59375,16.6875 28.22578,-8.17538 43.39425,-44.70896 28.75,-70.46875 -0.24349,-0.47011 -0.49111,-0.94504 -0.75,-1.40625 1.76874,-12.51363 2.09408,-25.33781 2.9375,-37.875 0.22804,-18.63825 -1.30916,-37.20489 -3.8125,-55.65625 11.36552,-3.25598 22.59098,-7.03809 33.625,-11.375 7.46721,-0.69869 11.67479,-9.99632 7.8125,-16.3125 C 632.50491,331.4508 590.813,276.30577 534.75,242.03125 c -12.41599,-7.62224 -25.50677,-14.31359 -39.0625,-19.875 -0.53691,-1.37826 -1.22322,-2.71437 -2.09375,-4 C 485.44681,204.15392 468.51326,200.69206 454.75,194.75 c -7.91639,-2.63101 -16.32221,-3.33005 -24.65625,-3.34375 z m 128.84375,297.5 c -0.0998,0.5512 -0.18421,1.10465 -0.28125,1.65625 -0.064,0.0155 -0.12356,0.0467 -0.1875,0.0625 0.152,-0.57397 0.3167,-1.14479 0.46875,-1.71875 z"
       id="path7542"
       inkscape:connector-curvature="0"
       sodipodi:nodetypes="scccccccccccccccccccccccccccccccccccccccccccscccc" />
    <path
       style="fill:#000000;fill-opacity:1;stroke:none"
       d="m 285.06383,507.61441 c -14.34894,2.57215 -29.096,3.36203 -43.03125,7.71875 -2.40894,13.84507 -4.82909,27.68825 -7.25,41.53125 16.93881,-5.37242 33.89141,-10.70169 50.84375,-16.03125 0.67539,-11.19494 1.27586,-22.39442 1.875,-33.59375 -0.8125,0.125 -1.625,0.25 -2.4375,0.375 z"
       id="path6580"
       inkscape:connector-curvature="0" />
    <path
       style="fill:url(#linearGradient6578);fill-opacity:1;stroke:none"
       d="m 245.56829,518.36945 c 3.39286,-1.60714 37.67857,-6.42857 37.67857,-6.42857 l -1.42857,25.89286 -41.96428,13.21428 z"
       id="path6561"
       inkscape:connector-curvature="0" />
    <path
       inkscape:connector-curvature="0"
       id="path6648"
       d="m 534.52581,486.80552 c -51.74876,15.53176 -105.92272,22.2238 -159.47771,17.38251 -36.71914,-4.34494 -72.55931,-16.78859 -104.3577,-37.75804 7.23486,67.26858 14.47579,134.53716 21.64075,201.81479 54.70625,30.7811 128.23527,38.80824 187.02567,17.72187 14.04832,-45.75724 42.49158,-143.39738 59.36733,-200.41934 -1.39945,0.4194 -2.7989,0.8388 -4.19834,1.25821 z"
       style="fill:#000000;fill-opacity:1;stroke:none"
       sodipodi:nodetypes="ccccccc" />
    <path
       style="fill:#3366ff;fill-opacity:1;stroke:none"
       d="m 531.53785,493.17202 c -34.31228,10.34587 -69.73521,15.66311 -105.25209,17.29806 -51.35742,3.87419 -104.57876,-6.80011 -149.87905,-34.51725 l 20.30427,188.93663 c 0,0 42.23298,25.50471 97.00578,28.67892 54.77279,3.17422 82.42692,-13.32023 82.42692,-13.32023 l 55.39417,-187.07613 z"
       id="path6651"
       inkscape:connector-curvature="0" />
    <path
       style="fill:url(#linearGradient7452);fill-opacity:1;stroke:none"
       d="m 531.53785,493.17202 c -34.31228,10.34587 -69.73521,15.66311 -105.25209,17.29806 -18.44381,1.39132 -37.13145,0.87659 -55.60284,-1.60031 58.71959,41.2296 97.21906,105.07158 103.43925,172.43415 1.28646,-0.63988 2.02151,-1.05577 2.02151,-1.05577 l 55.39417,-187.07613 z"
       id="path6653"
       inkscape:connector-curvature="0" />
    <path
       style="fill:url(#linearGradient7449);fill-opacity:1;stroke:none"
       d="m 292.13904,490.48197 14.42469,173.7592 c 14.78627,7.36523 30.27705,13.24472 46.12268,17.40892 l 9.71725,-168.6992 c -24.13491,-3.99742 -47.9314,-11.41338 -70.26462,-22.46892 z"
       id="path6655"
       inkscape:connector-curvature="0" />
    <path
       inkscape:connector-curvature="0"
       id="path6638"
       d="m 573.50673,403.44586 c -101.46777,24.98854 -210.8172,9.30846 -315.80286,-25.28643 -10.32425,-3.65442 -20.52222,-8.07549 -30.69069,-12.5891 8.00497,29.9058 15.96026,71.08079 24.02599,100.97004 66.71969,49.08962 120.69772,56.6305 183.05939,56.40744 40.10542,-0.14345 80.52082,-9.86052 117.79779,-23.11019 8.59654,-32.4804 17.21194,-64.95147 25.90268,-97.38277 -1.43076,0.33034 -2.86154,0.66067 -4.2923,0.99101 z"
       style="fill:#000000;fill-opacity:1;stroke:none"
       sodipodi:nodetypes="ccccsccc" />
    <path
       style="fill:#ff9900;fill-opacity:1;stroke:none"
       d="m 570.67909,410.00802 c -81.05402,19.67082 -168.62406,11.92978 -253.39668,-8.63674 -27.66236,-7.32157 -56.00076,-14.72225 -83.12682,-26.87035 l 21.64144,85.2502 c 0,0 58.24218,48.56044 144.29947,54.07545 86.05729,5.51501 147.99169,-18.77295 147.99169,-18.77295 z"
       id="path6640"
       inkscape:connector-curvature="0"
       sodipodi:nodetypes="ccccscc" />
    <path
       style="fill:#000000;fill-opacity:1;stroke:none"
       d="m 299.37632,404.89566 c 0.0937,0.86458 0.1875,1.72917 0.28125,2.59375 1.67775,15.02543 3.40651,30.0453 5.15625,45.0625 1.08216,0.35613 2.16794,0.70606 3.25,1.0625 -6.20801,26.71325 -13.8342,53.27445 -19.03125,80.09375 2.80764,8.21681 5.58228,16.43432 8.375,24.65625 -2.34942,7.47914 -2.11988,15.51997 1.125,22.6875 5.56083,20.08529 11.12248,40.15205 16.75,60.21875 15.28275,-18.20539 30.5619,-36.41395 45.875,-54.59375 -1.22928,-9.41383 -2.42299,-18.8325 -3.625,-28.25 1.90559,-2.23058 3.81662,-4.45397 5.71875,-6.6875 -5.07127,-28.8078 -10.18433,-57.60848 -15.3125,-86.40625 8.7586,-16.23458 17.55922,-32.43504 26.34375,-48.65625 -24.96884,-3.92651 -49.93696,-7.8576 -74.90625,-11.78125 z"
       id="path6181"
       inkscape:connector-curvature="0" />
    <path
       style="fill:url(#linearGradient7457);fill-opacity:1;stroke:none"
       d="m 570.67909,410.00802 c -81.05402,19.67082 -168.62406,11.92978 -253.39668,-8.63674 -10.50576,-2.78062 -21.11036,-5.59434 -31.70769,-8.6535 -2.32288,0.35227 -4.62536,0.71747 -6.99158,1.09759 135.08264,42.9481 227.93439,71.71297 269.51644,101.15297 l 22.57951,-84.96032 z"
       id="path6642"
       inkscape:connector-curvature="0" />
    <path
       style="fill:url(#linearGradient7473);fill-opacity:1;stroke:none"
       d="m 311.84507,454.86441 -19,77.53125 23.21875,68.1875 42.9375,-50.03125 -15.09375,-85.1875 c -10.69764,-3.47044 -21.38121,-6.97917 -32.0625,-10.5 z"
       id="path6136"
       inkscape:connector-curvature="0" />
    <path
       style="fill:url(#linearGradient7470);fill-opacity:1;stroke:none"
       d="m 354.03257,562.52066 c -13.13473,15.35026 -26.32637,30.65623 -39.46875,46 -4.8921,-14.13505 -9.71971,-28.30609 -14.53125,-42.46875 l -0.625,3.1875 17.6875,63.65625 39.875,-47.46875 -2.9375,-22.90625 z"
       id="path6138"
       inkscape:connector-curvature="0" />
    <path
       style="fill:#000000;fill-opacity:1;stroke:none"
       d="m 253.62304,545.4338 -143.9354,76.74141 0.0369,25.83206 393.91006,251.47764 148.18369,-180.29014 7.66641,-63.62562 z"
       id="path6405"
       inkscape:connector-curvature="0"
       sodipodi:nodetypes="ccccccc" />
    <path
       style="fill:url(#linearGradient7466);fill-opacity:1;stroke:none"
       d="M 503.45529,844.51971 117.07194,620.77094 254.45269,549.55519 652.95786,662.1872 z"
       id="path6375"
       inkscape:connector-curvature="0" />
    <path
       style="fill:#e8e8e8;fill-opacity:1;stroke:none"
       d="m 506.53433,847.16241 0.0613,41.6508 142.06911,-172.07778 4.29314,-47.98224 z"
       id="path6377"
       inkscape:connector-curvature="0"
       sodipodi:nodetypes="ccccc" />
    <path
       style="fill:url(#linearGradient7462);fill-opacity:1;stroke:none"
       d="m 501.26167,848.14711 0.074,45.0819 -386.83877,-248.25242 0.71428,-20.71428 z"
       id="path6379"
       inkscape:connector-curvature="0"
       sodipodi:nodetypes="ccccc" />
    <path
       style="fill:url(#linearGradient7476);fill-opacity:1;stroke:none"
       d="m 303.95016,405.10337 4.54569,44.44672 36.87057,12.12183 22.72843,-41.92133 z"
       id="path6134"
       inkscape:connector-curvature="0"
       sodipodi:nodetypes="ccccc" />
    <path
       style="fill:#000000;fill-opacity:1;stroke:none"
       d="m 191.50132,381.30191 -3.21875,2.875 c -34.89289,30.58956 -69.84102,61.11625 -104.749997,91.6875 0.691031,6.73385 1.285209,13.47296 1.84375,20.21875 -6.928621,7.38494 -13.856503,14.77004 -20.78125,22.15625 9.509664,15.57848 17.763867,31.79662 25.09375,48.4375 -1.222343,27.52973 -0.85731,57.89644 -1.40625,82.125 10.51591,2.77321 21.257547,4.45837 32.124997,5 2.74497,9.48313 5.34708,18.99525 7.90625,28.5 0.1241,8.32179 16.97102,-6.43864 20.5625,-7.80804 29.40086,-22.53555 48.76604,-40.64255 78.15625,-63.19196 -5.34353,-63.6274 -9.86659,-75.56178 -22.375,-111.625 -3.625,-11.29964 -7.78621,-22.44009 -12.375,-33.375 1.33946,-28.32145 -0.23848,-56.674 -0.78125,-85 z"
       id="path6304"
       inkscape:connector-curvature="0"
       sodipodi:nodetypes="cccccccccccccc" />
    <path
       style="fill:url(#linearGradient7490);fill-opacity:1;stroke:none"
       d="M 69.594776,518.74553 164.04404,418.23536 c 52.85714,92.5 51.44598,159.28104 58.58884,191.4239 l -90.91373,69.70053 c 0,0 -24.98152,-101.32855 -62.124374,-160.61426 z"
       id="path6245"
       inkscape:connector-curvature="0"
       sodipodi:nodetypes="ccccc" />
    <path
       style="fill:#000000;fill-opacity:1;stroke:none"
       d="m 148.47134,446.93912 c -18.8819,2.02935 -24.75641,18.89297 -17.81377,31.45654 9.04088,18.36744 30.20684,27.33019 49.125,29.9375 -8.35601,13.98004 -5.73474,36.22891 10.5,43.28125 7.61684,3.4501 16.03534,4.53023 24.375,4.1875 0.70343,9.28162 3.54414,21.42083 4.26786,30.70089 7.43959,-2.15137 10.89981,-11.19832 14.29464,-17.54464 7.04412,-0.57104 12.43159,-7.02092 16.1875,-12.53125 8.73083,-14.59894 8.34181,-35.12936 -1.96875,-48.84375 -3.34194,-4.03 -7.92202,-7.02772 -13,-8.375 -2.09753,-13.52708 -5.17789,-29.00787 -17,-37.40625 -9.6336,-6.5235 -22.41215,-7.82521 -33.16386,-6.62675 -11.83703,1.17356 -20.39721,-5.11181 -31.20987,-7.89229 -1.51584,-0.24626 -3.04834,-0.47149 -4.59375,-0.34375 z"
       id="path6329"
       inkscape:connector-curvature="0"
       sodipodi:nodetypes="cccccccccccccc" />
    <path
       style="fill:url(#linearGradient7486);fill-opacity:1;stroke:none"
       d="m 232.98695,523.7963 c 0,0 3.78807,-6.81853 3.78807,-19.44544 0,0 14.89975,5.05076 14.64721,29.54696 -0.25254,24.4962 -16.66752,30.80965 -16.66752,30.80965 0,0 1e-5,-3.53552 -1.76776,-9.59644 -2.77792,17.93021 -12.62691,22.47589 -12.62691,22.47589 l -2.0203,-26.01143 c 0,0 -33.0825,4.04061 -38.13326,-17.67767 -5.05077,-21.71828 11.11167,-33.08249 11.11167,-33.08249 l -9.59644,3.53553 c 0,0 -26.76905,-1.51523 -42.67895,-20.20305 -15.9099,-18.68782 1.76777,-30.55711 9.59645,-31.31473 7.82868,-0.75761 20.47802,9.4904 31.56726,9.59645 17.21817,0.16467 27.52666,-5.55584 39.39596,6.56599 11.86929,12.12183 13.38452,54.80078 13.38452,54.80078 z"
       id="path6053"
       inkscape:connector-curvature="0"
       sodipodi:nodetypes="ccsccccsccssssc" />
    <path
       style="fill:url(#linearGradient7483);fill-opacity:1;stroke:none"
       d="m 187.72007,389.98941 -99.999997,87.5 c 0,0 0.567998,5.08443 1.34375,14.65625 24.620667,-26.23811 49.268527,-52.45829 73.937497,-78.625 l 1.84375,-1.9375 c 8.84795,15.13425 16.54277,27.5853 23.65244,43.62452 -0.0625,-22.09136 -0.0165,-41.97383 -0.77744,-65.21827 z m -95.031247,183.625 c 0.32277,20.89363 0.28418,44.97187 -0.34375,72.0625 9.814077,2.38721 18.749087,3.638 26.843747,4 -7.57173,-25.80365 -16.06914,-51.36668 -26.499997,-76.0625 z"
       id="path6247"
       inkscape:connector-curvature="0"
       sodipodi:nodetypes="ccccccccccc" />
    <path
       style="fill:url(#linearGradient7480);fill-opacity:1;stroke:none"
       d="m 139.53257,493.58316 c -29.10714,4.82011 -50.749997,30.625 -50.749997,30.625 l 5.8125,6.625 c 0,0 21.187497,-25.9956 44.937497,-37.25 z m 8.21875,13.9375 c -29.10714,4.82011 -50.749997,30.625 -50.749997,30.625 l 5.812497,6.59375 c 0,0 21.1875,-25.96435 44.9375,-37.21875 z m 12.6875,18.03125 c -29.10714,4.82011 -50.75,30.625 -50.75,30.625 l 5.8125,6.625 c 0,0 21.1875,-25.9956 44.9375,-37.25 z m 16.4375,29.625 c -29.10714,4.82011 -50.78125,30.65625 -50.78125,30.65625 l 5.8125,6.59375 c 0,0 21.21875,-25.9956 44.96875,-37.25 z m 8.03125,18.59375 c -29.10714,4.82011 -50.75,30.625 -50.75,30.625 l 5.78125,6.59375 c 0,0 21.21875,-25.96435 44.96875,-37.21875 z m 5,13.75 c -29.10714,4.82011 -50.75,30.625 -50.75,30.625 l 5.78125,6.59375 c 0,0 21.21875,-25.96435 44.96875,-37.21875 z m 4.8125,13.5625 c -29.10714,4.82011 -50.75,30.625 -50.75,30.625 l 5.8125,6.625 c 0,0 21.1875,-25.9956 44.9375,-37.25 z"
       id="path6266"
       inkscape:connector-curvature="0" />
    <path
       style="fill:#000000;stroke:none"
       d="m 397.78257,576.67691 c -8.36493,-0.29788 -19.79661,4.43791 -18.77538,13.51602 1.64038,14.58197 17.61919,26.25082 30.21288,31.76523 0.28504,0.10548 0.58246,0.21048 0.875,0.3125 0.58448,2.721 5.33892,4.83112 7.0625,6.78125 4.79693,3.81878 11.92247,6.87869 18.3125,6.28125 9.2e-4,0.003 0.0303,-0.003 0.0312,0 0.29643,0.87283 0.8524,1.68001 1.6875,2.25 13.85315,20.6741 16.8926,46.15456 19.875,70.21875 -13.69327,1.60028 -27.85519,4.54724 -39.65625,12 -7.21666,4.0915 -12.50482,12.43065 -9.71875,20.875 3.09195,12.14134 16.54055,15.64057 27.03125,18.75 22.84794,5.70103 47.69264,10.10476 70.5,1.8125 9.89925,-3.73213 22.45996,-10.12091 22.40625,-22.375 0.0663,-12.95351 -12.71756,-20.56578 -23.25,-24.9375 -8.32582,-3.43314 -17.75175,-4.5836 -26.21875,-6.53125 -8.38643,-27.3371 -11.54014,-58.8251 -31.65625,-80.65625 2.07734,-7.55969 -3.24482,-15.66447 -7.8125,-21.875 -1.46008,-4.77015 -4.57715,-9.29062 -7.9375,-12.65625 -8.60828,-8.70359 -20.46057,-15.44625 -32.9687,-15.53125 z"
       id="path6474"
       inkscape:connector-curvature="0"
       sodipodi:nodetypes="cscccccccccccccccccc" />
    <path
       sodipodi:type="arc"
       style="fill:#4e4e4e;fill-opacity:1;stroke:none"
       id="path6442"
       sodipodi:cx="428.55722"
       sodipodi:cy="761.81708"
       sodipodi:rx="28.031733"
       sodipodi:ry="15.531096"
       d="m 456.58895,761.81708 c 0,8.57759 -12.55023,15.53109 -28.03173,15.53109 -15.4815,0 -28.03173,-6.9535 -28.03173,-15.53109 0,-8.57759 12.55023,-15.5311 28.03173,-15.5311 15.4815,0 28.03173,6.95351 28.03173,15.5311 z"
       transform="matrix(0.84141863,0.54038383,-0.54038383,0.84141863,461.59886,-271.89829)" />
    <path
       style="fill:#4e4e4e;fill-opacity:1;stroke:none"
       d="m 439.31382,613.08316 c -0.37398,2.05783 -1.20121,4.07399 -2.59375,5.96875 -4.70358,5.56432 -12.2221,6.27445 -19.28125,5.09375 0.6774,0.58143 1.35789,1.17766 2.09375,1.71875 9.15004,6.72823 19.21289,7.46073 22.46875,1.65625 2.08131,-3.71051 0.84061,-9.20159 -2.6875,-14.4375 z"
       id="path6444"
       inkscape:connector-curvature="0" />
    <path
       style="fill:#c6d6e9;fill-opacity:1;stroke:none"
       d="m 444.68882,630.61441 c -0.0679,0.10072 -0.11614,0.21218 -0.1875,0.3125 -1.40564,1.55332 -3.01395,2.65226 -4.75,3.375 3.92015,5.09049 9.43663,14.5495 13.9375,31.09375 7.89459,29.01879 8.09375,57.21875 8.09375,57.21875 l -4.625,-11.125 c 0,0 -44.35838,5.52552 -46,22.78125 -1.64163,17.25574 20.47837,20.87411 49.0625,26.3125 28.58414,5.43839 68.29429,-5.87289 63.03125,-25.21875 -5.26306,-19.34586 -44.5625,-23.5625 -44.5625,-23.5625 l -0.3125,12.0625 c 0,0 -8.36316,-31.09663 -15.59375,-58.0625 -4.36977,-16.2967 -12.41201,-28.26051 -18.09375,-35.1875 z"
       id="path6453"
       inkscape:connector-curvature="0" />
    <path
       inkscape:connector-curvature="0"
       id="path6606"
       d="m 474.52585,219.01244 c -54.4057,-18.36781 -115.31754,-14.73478 -165.98526,14.04664 -46.91978,25.52281 -85.95309,66.38551 -114.48252,114.27656 13.97502,21.83953 37.17698,35.37755 59.14754,44.69998 55.8768,23.70932 116.14768,31.30542 175.53619,38.48599 72.18524,7.11908 146.81835,2.79532 215.19134,-24.5735 8.08762,-1.22832 8.63144,-6.3442 5.07311,-13.11843 -28.40918,-83.92845 -95.50247,-150.03981 -174.4804,-173.81724 z"
       style="fill:#000000;fill-opacity:1;stroke:none"
       sodipodi:nodetypes="cccscccc" />
    <path
       inkscape:connector-curvature="0"
       id="path6608"
       d="m 199.57908,347.27374 c 0,0 90.64094,-164.03814 248.7668,-130.01405 158.12586,34.0241 198.02741,182.14262 198.02741,182.14262 0,0 -96.14353,48.79482 -260.61012,20.18867 C 221.29659,390.98482 199.57908,347.27374 199.57908,347.27374 z"
       style="fill:#9cdafb;fill-opacity:1;stroke:none" />
    <path
       inkscape:connector-curvature="0"
       id="path6610"
       d="m 476.62196,224.91034 c -8.97837,-2.95381 -18.37858,-5.53749 -28.26144,-7.664 -1.69086,-0.36382 -3.38351,-0.69485 -5.0589,-1.01382 60.7005,44.89681 92.81769,114.08104 75.23501,176.25491 -3.70529,13.10223 -9.40686,25.10508 -16.76381,35.88147 92.7323,-2.63792 144.59318,-28.94942 144.59318,-28.94942 0,0 -35.06863,-130.20136 -169.74404,-174.50914 z"
       style="fill:url(#linearGradient7501);fill-opacity:1;stroke:none" />
    <path
       inkscape:connector-curvature="0"
       id="path6612"
       d="m 426.09619,233.58342 c -72.63327,-24.52595 -166.27047,29.63406 -212.34826,121.54704 18.7604,16.04362 42.43843,24.31993 64.88525,32.81602 3.68209,1.24594 7.37667,2.48041 11.07705,3.65867 0.93643,-3.26562 1.95601,-6.5351 3.03321,-9.80041 26.54695,-80.47307 88.02607,-135.52318 149.79843,-141.07508 -5.17099,-2.80255 -10.65896,-5.19225 -16.44568,-7.14624 z"
       style="fill:url(#linearGradient7498);fill-opacity:1;stroke:none" />
    <path
       sodipodi:nodetypes="cscsc"
       inkscape:connector-curvature="0"
       id="path6517"
       d="m 285.72782,313.34538 c 0,0 6.43972,-25.50636 25.12754,-20.70814 18.68782,4.79823 14.14214,35.10281 14.14214,35.10281 0,0 -8.5863,-25.25382 -19.44544,-26.51651 -10.85914,-1.26269 -19.82424,12.12184 -19.82424,12.12184 z"
       style="fill:#000000;stroke:none" />
    <path
       style="fill:#000000;stroke:none"
       d="m 350.72782,333.16681 c 0,0 6.43972,-26.14271 25.12754,-23.19114 18.68782,2.95158 14.14214,33.70535 14.14214,33.70535 0,0 -8.5863,-24.40536 -19.44544,-24.595 -10.85914,-0.18964 -19.82424,14.08079 -19.82424,14.08079 z"
       id="path6519"
       inkscape:connector-curvature="0"
       sodipodi:nodetypes="cscsc" />
    <path
       inkscape:connector-curvature="0"
       id="path6523"
       d="m 570.38773,316.60131 c -21.56529,0.51629 -39.22324,22.02122 -35.30601,43.32863 2.58646,20.99353 25.39402,38.37063 45.91974,32.97397 20.76438,-4.13403 34.13118,-29.90599 27.19326,-49.99361 -4.88881,-16.05481 -20.92788,-27.32005 -37.80699,-26.30899 z"
       style="fill:#000000;fill-opacity:1;stroke:none"
       sodipodi:nodetypes="ccccc" />
    <path
       transform="translate(99.64682,-108.8475)"
       d="m 506.84404,463.06445 c 0,18.89859 -15.32033,34.21892 -34.21892,34.21892 -18.89858,0 -34.21892,-15.32033 -34.21892,-34.21892 0,-18.89858 15.32034,-34.21891 34.21892,-34.21891 18.89859,0 34.21892,15.32033 34.21892,34.21891 z"
       sodipodi:ry="34.218918"
       sodipodi:rx="34.218918"
       sodipodi:cy="463.06445"
       sodipodi:cx="472.62512"
       id="path6525"
       style="fill:#ff9900;fill-opacity:1;stroke:none"
       sodipodi:type="arc" />
    <path
       sodipodi:type="arc"
       style="fill:url(#linearGradient6529);fill-opacity:1;stroke:none"
       id="path6527"
       sodipodi:cx="472.62512"
       sodipodi:cy="463.06445"
       sodipodi:rx="34.218918"
       sodipodi:ry="34.218918"
       d="m 506.84404,463.06445 c 0,18.89859 -15.32033,34.21892 -34.21892,34.21892 -18.89858,0 -34.21892,-15.32033 -34.21892,-34.21892 0,-18.89858 15.32034,-34.21891 34.21892,-34.21891 18.89859,0 34.21892,15.32033 34.21892,34.21891 z"
       transform="matrix(0.88929889,0,0,0.88929889,151.96694,-57.58576)" />
    <path
       inkscape:connector-curvature="0"
       id="path6533"
       d="m 572.51835,384.57073 c 1.59155,-15.21627 10.65866,-27.05616 19.32734,-17.49531 8.03465,6.37274 12.55824,22.62393 13.53832,36.98704 6.1848,33.3666 8.97624,68.86915 4.5639,101.15196 -0.86265,10.65272 -2.19374,21.43692 -5.59119,29.8546 -14.14901,-13.14641 -28.30935,-26.24101 -42.47653,-39.30368 4.33337,-27.64081 13.03284,-53.56488 11.86645,-84.23001 -1.10787,-8.97722 -3.2075,-18.58747 -1.22829,-26.9646 z"
       style="fill:#000000;fill-opacity:1;stroke:none"
       sodipodi:nodetypes="cccccccc" />
    <path
       sodipodi:nodetypes="cscssscc"
       inkscape:connector-curvature="0"
       id="path6535"
       d="m 566.80954,493.70884 c 0,0 8.8821,-44.416 10.71203,-63.3861 1.82993,-18.9701 -1.83748,-32.97897 -1.83748,-32.97897 0,0 -0.68951,-15.61392 5.21248,-25.02023 5.90199,-9.4063 18.3455,7.17336 19.12275,20.12698 0.77724,12.95362 9.84294,49.61505 7.97284,85.03652 -2.24261,42.47658 -5.36265,50.09348 -5.36265,50.09348 z"
       style="fill:#ff9900;fill-opacity:1;stroke:none" />
    <path
       sodipodi:nodetypes="cssccc"
       inkscape:connector-curvature="0"
       id="path6537"
       d="m 580.19934,389.16846 c 0.90191,-8.26175 2.73888,-13.0276 8.04915,-9.06889 4.25875,3.17481 7.31332,38.75187 7.75848,52.24211 0.65387,19.8152 3.15746,48.18497 -1.2146,77.56036 -4.87919,-4.81328 -22.2583,-18.71886 -22.50405,-23.44077 12.85571,-28.39454 9.40182,-74.76803 7.91102,-97.29281 z"
       style="fill:url(#linearGradient7509);fill-opacity:1;stroke:none" />
    <path
       inkscape:connector-curvature="0"
       id="path6543"
       d="m 567.98804,493.42606 c -25.89403,0.62643 -47.09641,26.71928 -42.39289,52.57247 3.10564,25.47234 30.18806,44.10539 54.83385,37.55739 24.93236,-5.01599 41.28547,-33.83488 32.95492,-58.20804 -5.87013,-19.47999 -25.12867,-33.14858 -45.39588,-31.92182 z"
       style="fill:#000000;fill-opacity:1;stroke:none" />
    <path
       transform="matrix(1.2007271,0,0,1.2133426,2.7566731,-22.789107)"
       d="m 506.84404,463.06445 c 0,18.89859 -15.32033,34.21892 -34.21892,34.21892 -18.89858,0 -34.21892,-15.32033 -34.21892,-34.21892 0,-18.89858 15.32034,-34.21891 34.21892,-34.21891 18.89859,0 34.21892,15.32033 34.21892,34.21891 z"
       sodipodi:ry="34.218918"
       sodipodi:rx="34.218918"
       sodipodi:cy="463.06445"
       sodipodi:cx="472.62512"
       id="path6545"
       style="fill:#ff9900;fill-opacity:1;stroke:none"
       sodipodi:type="arc" />
    <path
       sodipodi:type="arc"
       style="fill:url(#linearGradient6549);fill-opacity:1;stroke:none"
       id="path6547"
       sodipodi:cx="472.62512"
       sodipodi:cy="463.06445"
       sodipodi:rx="34.218918"
       sodipodi:ry="34.218918"
       d="m 506.84404,463.06445 c 0,18.89859 -15.32033,34.21892 -34.21892,34.21892 -18.89858,0 -34.21892,-15.32033 -34.21892,-34.21892 0,-18.89858 15.32034,-34.21891 34.21892,-34.21891 18.89859,0 34.21892,15.32033 34.21892,34.21891 z"
       transform="matrix(1.0678053,0,0,1.0790242,65.578859,39.408946)" />
    <path
       style="fill:#000000;fill-opacity:1;stroke:none"
       d="m 566.45647,567.36843 c 8.45232,-6.97755 4.19818,-22.61284 -1.84945,-29.78429 -7.84235,-11.74863 -20.73664,-11.95653 -30.80961,-18.86137 -18.97659,-9.30275 -37.89117,-18.55402 -56.77943,-27.9458 -11.64913,8.49413 -26.84851,17.71098 -29.29704,36.88974 -0.97133,8.52686 3.82562,18.96103 11.07309,17.57048 32.16389,8.21654 63.98349,19.52522 96.31416,25.8113 3.9361,0.0343 7.97874,-0.83915 11.34828,-3.68006 z"
       id="path6553"
       inkscape:connector-curvature="0" />
    <path
       style="fill:#ff9900;fill-opacity:1;stroke:none"
       d="M 549.52935,564.81559 454.06022,538.0635 c 0,0 -5.44559,-9.53437 1.51684,-20.57742 6.96244,-11.04306 21.69032,-20.44009 21.69032,-20.44009 l 80.52917,39.55102 c 0,0 12.00946,14.033 8.59005,22.66851 -3.41942,8.63551 -16.85725,5.55007 -16.85725,5.55007 z"
       id="path6555"
       inkscape:connector-curvature="0" />
    <path
       style="fill:url(#linearGradient7517);fill-opacity:1;stroke:none"
       d="m 561.67233,557.71917 c 3.37128,-4.35611 -2.2804,-11.2346 -4.76757,-14.09494 -7.38675,-8.49508 -18.14118,-8.77099 -26.78947,-14.52269 -17.51021,-8.58636 -35.02042,-17.17272 -52.53064,-25.75908 -8.06718,6.66472 -18.88215,15.7863 -20.04132,29.83088 41.06504,9.21208 70.70833,21.1315 97.92224,26.39505 2.06799,0.39998 4.66126,0.14777 6.20676,-1.84922 z"
       id="path6557"
       inkscape:connector-curvature="0"
       sodipodi:nodetypes="sscccss" />
    <path
       style="fill:#000000;stroke:none"
       d="m 398.62632,410.42691 c -0.76617,-0.003 -1.54547,0.005 -2.3125,0.0312 -14.61686,-0.42227 -31.7046,2.70912 -36.03125,21.53125 -25.00585,9.54377 -25.00905,29.5002 -21.09375,46.46875 -11.13115,13.14042 -9.84198,32.89836 -1.09375,46.96875 7.22551,14.78543 21.08298,29.76516 38.875,28.75 5.63428,-0.60319 9.01926,-6.7345 11.125,-10.5 12.70357,8.77002 29.54237,13.24298 44.25,6.875 3.58046,-2.22147 6.39196,3.05798 10.03125,3.8125 10.71444,5.8989 26.87245,5.73332 33.28125,-6.28125 9.69583,-15.71577 10.47606,-35.05843 10.4375,-53.0625 0.18788,-10.1997 -6.43071,-19.69847 -16.1875,-22.71875 -2.63767,-1.8031 -8.27673,-0.41541 -7.4375,-4.9375 -0.82912,-7.85891 -3.11989,-15.58937 -6.6875,-22.625 1.73211,-8.79464 2.82965,-18.87255 -4.65625,-24.8125 -6.89755,-4.71578 -15.73649,-3.88127 -23.6875,-4.125 -0.87726,-0.0254 -1.5493,0.22145 -2.03125,0.625 -8.37775,-3.80428 -17.53074,-5.95959 -26.78125,-6 z"
       id="path6082"
       inkscape:connector-curvature="0"
       sodipodi:nodetypes="ccccccccccccccccccc" />
    <path
       style="fill:url(#linearGradient7525);fill-opacity:1;stroke:none"
       d="m 460.01873,499.55264 c 0,0 3.78808,-14.64721 3.53554,-25.00128 0,0 15.9099,2.77792 17.9302,15.65737 2.02031,12.87944 0,45.96194 -11.36421,58.84138 -8.22118,9.31734 -23.48605,4.04061 -30.30458,-0.75761 0,0 6.31345,-4.04061 10.35406,-16.41498 0,0 -11.61675,17.9302 -34.85026,17.67767 -23.23351,-0.25254 -62.45396,-40.61313 -62.45396,-40.61313 0,0 19.77501,24.95576 31.39177,32.27937 0,0 -2.5223,9.24414 -9.09137,9.09137 -10.85915,-0.25254 -25.75889,-7.07106 -37.1231,-34.59772 -11.36422,-27.52666 13.13197,-43.18402 13.13197,-43.18402 0,0 -5.05075,0.25253 -8.33375,3.03045 0,0 -3.78808,-19.44543 8.83883,-32.57742 7.87664,-8.19171 29.04189,-10.6066 29.04189,-10.6066 0,0 -4.79822,-3.28299 -15.15229,-2.27284 2.77792,-5.05076 9.84899,-16.16244 34.09265,-15.65737 21.83215,0.45483 44.95178,14.14214 53.53808,33.84011 8.5863,19.69798 6.81853,51.26525 6.81853,51.26525 z"
       id="path6071"
       inkscape:connector-curvature="0"
       sodipodi:nodetypes="ccssccsccssccsccssc" />
    <path
       style="fill:url(#linearGradient7522);fill-opacity:1;stroke:none"
       d="m 434.62632,419.92691 c -0.81068,-0.006 -1.63458,0.006 -2.4375,0.0312 8.37979,4.54147 15.2713,11.23883 20.375,19.15625 0.97267,-5.66543 0.95472,-12.70052 -4.03125,-16.09375 -3.40926,-2.32019 -8.66806,-3.05306 -13.90625,-3.09375 z"
       id="path6073"
       inkscape:connector-curvature="0" />
    <path
       style="fill:#000000;stroke:none"
       d="m 487.6407,340.08638 -0.16658,5.03365 c -0.39855,16.82813 -0.57299,35.58026 -9.56592,51.30767 0.0445,0.0195 0.0842,0.0529 0.1286,0.0724 -0.83602,1.34703 -1.72828,2.65301 -2.66018,3.91564 -0.0206,0.0279 -0.0379,0.0575 -0.0585,0.0853 -11.75898,15.87398 -30.66644,24.75971 -46.22416,20.0063 -1.87634,-0.96807 -5.97642,-0.85855 -7.60829,-2.09115 -12.28947,-4.51144 -22.99376,-12.24734 -32.85197,-21.03015 26.15963,-4.65407 54.43531,-11.2923 76.23188,-33.67548 8.05617,-7.22893 15.48826,-15.34008 22.77511,-23.62425 z"
       id="path6594"
       inkscape:connector-curvature="0" />
    <path
       style="fill:url(#linearGradient7532);fill-opacity:1;stroke:none"
       d="m 483.32986,350.71666 c -0.50257,14.96964 -0.73111,30.68575 -9.11791,44.3039 -6.92777,-2.40333 -14.47469,-3.26387 -22.22042,-1.47265 -10.90675,2.34981 -22.54286,8.92921 -29.41481,20.19517 -13.44434,-4.9693 -23.62367,-13.83622 -23.62367,-13.83622 0,0 22.29996,-4.01361 41.33147,-13.15389 19.0315,-9.14029 43.04534,-36.03631 43.04534,-36.03631 z"
       id="path6596"
       inkscape:connector-curvature="0"
       sodipodi:nodetypes="cccccsc" />
    <path
       style="fill:url(#linearGradient7529);fill-opacity:1;stroke:none"
       d="m 452.11084,398.01619 c 9.13701,-1.94924 16.12302,-0.10466 19.29136,1.06381 -3.57722,4.65176 -8.29381,9.02471 -14.49265,12.95976 -9.91706,6.29542 -20.85172,5.82363 -30.55048,2.9478 1.64755,-2.74459 7.2834,-10.66463 20.10399,-15.34751 1.9569,-0.71479 3.84451,-1.23915 5.64778,-1.62386 z"
       id="path6598"
       inkscape:connector-curvature="0" />
    <path
       id="path6622"
       d="m 451.15598,197.79923 c -0.84998,-0.23735 -1.69599,-0.44626 -2.54512,-0.64046 -12.63952,-2.22135 -26.99907,-3.46752 -38.92495,2.62017 -13.81533,2.52566 -32.5514,6.55371 -39.43734,21.65255 -4.45734,12.76368 9.56669,24.7264 19.11802,29.0587 26.45874,13.13196 57.56377,13.6979 84.85153,2.97699 9.60864,-3.74477 23.65496,-12.94002 21.04823,-26.0031 -3.42447,-14.29959 -20.78794,-21.35933 -32.05843,-24.90021 -0.53461,-0.11078 -0.98513,-0.0942 -1.38732,-0.0218 -3.25871,-2.21723 -6.95182,-3.70625 -10.66462,-4.74284 z"
       style="fill:#000000;fill-opacity:1;stroke:none"
       inkscape:connector-curvature="0"
       sodipodi:nodetypes="cccccccccc" />
    <path
       transform="matrix(0.99782953,0.07749152,-0.24348787,1.1383367,125.63492,43.56701)"
       d="m 371.98867,127.18872 c 0,7.04339 -14.18968,12.75318 -31.69353,12.75318 -17.50386,0 -31.69354,-5.70979 -31.69354,-12.75318 0,-7.04338 14.18968,-12.75318 31.69354,-12.75318 17.50385,0 31.69353,5.7098 31.69353,12.75318 z"
       sodipodi:ry="12.753176"
       sodipodi:rx="31.693537"
       sodipodi:cy="127.18872"
       sodipodi:cx="340.29514"
       id="path6624"
       style="fill:#ff9900;fill-opacity:1;stroke:none"
       sodipodi:type="arc" />
    <path
       inkscape:connector-curvature="0"
       id="path6626"
       d="m 467.09414,208.82518 c 2.64834,2.76308 3.87886,5.83329 3.20473,8.98489 -2.00477,9.37257 -19.82554,15.77765 -39.796,14.31127 -19.97045,-1.46638 -34.53915,-10.26513 -32.53438,-19.6377 0.4956,-2.317 1.95593,-4.47617 4.17762,-6.35675 -13.65525,3.95372 -23.29706,10.82487 -25.0736,19.13041 -3.12788,14.62324 19.31527,28.25361 50.14974,30.45508 30.83446,2.20147 58.38115,-7.86911 61.50903,-22.49235 2.0339,-9.50877 -6.76512,-18.59242 -21.63714,-24.39485 z"
       style="fill:#ff9900;fill-opacity:1;stroke:none" />
    <path
       sodipodi:type="arc"
       style="fill:url(#linearGradient6632);fill-opacity:1;stroke:none"
       id="path6628"
       sodipodi:cx="340.29514"
       sodipodi:cy="127.18872"
       sodipodi:rx="31.693537"
       sodipodi:ry="12.753176"
       d="m 371.98867,127.18872 c 0,7.04339 -14.18968,12.75318 -31.69353,12.75318 -17.50386,0 -31.69354,-5.70979 -31.69354,-12.75318 0,-7.04338 14.18968,-12.75318 31.69354,-12.75318 17.50385,0 31.69353,5.7098 31.69353,12.75318 z"
       transform="matrix(0.81674492,0.06342848,-0.19930006,0.93175307,181.63694,74.627704)" />
    <path
       inkscape:connector-curvature="0"
       id="path6630"
       d="m 474.46163,218.03053 c -3.04644,13.50815 -17.41898,16.58146 -27.80438,18.24684 -16.88045,2.29484 -36.01043,0.49429 -49.40863,-12.33328 -2.10044,-2.56186 -3.59136,-5.89722 -3.71235,-9.46876 -5.5618,2.49587 -14.48566,8.20847 -11.83333,16.27604 6.51586,12.69139 20.96066,15.30187 32.71766,18.29542 21.63784,4.04813 45.74779,3.4471 65.15327,-9.52137 4.76446,-3.24849 7.37067,-11.34304 2.30224,-15.68373 -2.01155,-2.31205 -4.99775,-5.36571 -7.41448,-5.81116 z"
       style="fill:url(#linearGradient7536);fill-opacity:1;stroke:none" />
  </g>
</svg>
